{
  "accessors": [
    {
      "bufferView": 2,
      "componentType": 5126,
      "count": 33,
      "max": [
        3.0900180339813232,
        -1.6489779949188232,
        -2.5083329677581787
      ],
      "min": [
        -3.090017080307007,
        -4.3762078285217285,
        -8.20041275024414
      ],
      "type": "VEC3"
    },
    {
      "bufferView": 2,
      "byteOffset": 396,
      "componentType": 5126,
      "count": 33,
      "max": [
        0.5556035041809082,
        -0.5494272708892822,
        0.18789781630039215
      ],
      "min": [
        -0.5556035041809082,
        -0.9998905658721924,
        -0.8355415463447571
      ],
      "type": "VEC3"
    },
    {
      "bufferView": 1,
      "componentType": 5126,
      "count": 33,
      "max": [
        0.9948310256004333,
        0.9948310256004333
      ],
      "min": [
        0.005169000010937452,
        0.005169000010937452
      ],
      "type": "VEC2"
    },
    {
      "bufferView": 0,
      "componentType": 5125,
      "count": 144,
      "type": "SCALAR"
    },
    {
      "bufferView": 2,
      "byteOffset": 792,
      "componentType": 5126,
      "count": 241,
      "max": [
        7.0,
        7.0,
        3.111176013946533
      ],
      "min": [
        -7.0,
        -7.0,
        -5.951016902923584
      ],
      "type": "VEC3"
    },
    {
      "bufferView": 2,
      "byteOffset": 3684,
      "componentType": 5126,
      "count": 241,
      "max": [
        0.9993942975997925,
        0.9993942975997925,
        1.0
      ],
      "min": [
        -0.9993942975997925,
        -0.9993942975997925,
        -1.0
      ],
      "type": "VEC3"
    },
    {
      "bufferView": 0,
      "byteOffset": 576,
      "componentType": 5125,
      "count": 882,
      "type": "SCALAR"
    },
    {
      "bufferView": 2,
      "byteOffset": 6576,
      "componentType": 5126,
      "count": 129,
      "max": [
        4.48197603225708,
        4.4818549156188965,
        0.333622008562088
      ],
      "min": [
        -4.481975078582764,
        -4.153295993804932,
        -8.630088806152344
      ],
      "type": "VEC3"
    },
    {
      "bufferView": 2,
      "byteOffset": 8124,
      "componentType": 5126,
      "count": 129,
      "max": [
        1.0,
        0.9998905658721924,
        0.9998671412467957
      ],
      "min": [
        -1.0,
        -0.9428499937057495,
        -0.9998671412467957
      ],
      "type": "VEC3"
    },
    {
      "bufferView": 1,
      "byteOffset": 264,
      "componentType": 5126,
      "count": 129,
      "max": [
        0.0,
        0.0
      ],
      "min": [
        0.0,
        0.0
      ],
      "type": "VEC2"
    },
    {
      "bufferView": 0,
      "byteOffset": 4104,
      "componentType": 5125,
      "count": 624,
      "type": "SCALAR"
    }
  ],
  "asset": {
    "extras": {
      "author": "1-3D.com (https://sketchfab.com/1-3D.com)",
      "license": "CC-BY-SA-4.0 (http://creativecommons.org/licenses/by-sa/4.0/)",
      "source": "https://sketchfab.com/3d-models/cctv-ea4b5571f08049adbe9069ebf71aeff8",
      "title": "Cctv"
    },
    "generator": "Sketchfab-12.78.0",
    "version": "2.0"
  },
  "bufferViews": [
    {
      "buffer": 0,
      "byteLength": 6600,
      "name": "floatBufferViews",
      "target": 34963
    },
    {
      "buffer": 0,
      "byteLength": 1296,
      "byteOffset": 6600,
      "byteStride": 8,
      "name": "floatBufferViews",
      "target": 34962
    },
    {
      "buffer": 0,
      "byteLength": 9672,
      "byteOffset": 7896,
      "byteStride": 12,
      "name": "floatBufferViews",
      "target": 34962
    }
  ],
  "buffers": [
    {
      "byteLength": 17568,
      "uri": "scene.bin"
    }
  ],
  "images": [
    {
      "uri": "textures/eyetexture_baseColor.jpeg"
    }
  ],
  "materials": [
    {
      "doubleSided": true,
      "name": "eyetexture",
      "pbrMetallicRoughness": {
        "baseColorTexture": {
          "index": 0
        },
        "metallicFactor": 0.0,
        "roughnessFactor": 0.9301366659694184
      }
    },
    {
      "doubleSided": true,
      "name": "whiteplastic",
      "pbrMetallicRoughness": {
        "baseColorFactor": [
          0.662045,
          0.662045,
          0.662045,
          1.0
        ],
        "metallicFactor": 0.0,
        "roughnessFactor": 0.9584897737728251
      }
    }
  ],
  "meshes": [
    {
      "name": "Object_0",
      "primitives": [
        {
          "attributes": {
            "NORMAL": 1,
            "POSITION": 0,
            "TEXCOORD_0": 2
          },
          "indices": 3,
          "material": 0,
          "mode": 4
        }
      ]
    },
    {
      "name": "Object_1",
      "primitives": [
        {
          "attributes": {
            "NORMAL": 5,
            "POSITION": 4
          },
          "indices": 6,
          "material": 1,
          "mode": 4
        }
      ]
    },
    {
      "name": "Object_2",
      "primitives": [
        {
          "attributes": {
            "NORMAL": 8,
            "POSITION": 7,
            "TEXCOORD_0": 9
          },
          "indices": 10,
          "material": 1,
          "mode": 4
        }
      ]
    }
  ],
  "nodes": [
    {
      "children": [
        1
      ],
      "matrix": [
        1.0,
        0.0,
        0.0,
        0.0,
        0.0,
        2.220446049250313e-16,
        -1.0,
        0.0,
        0.0,
        1.0,
        2.220446049250313e-16,
        0.0,
        0.0,
        0.0,
        0.0,
        1.0
      ],
      "name": "Sketchfab_model"
    },
    {
      "children": [
        2,
        3,
        4
      ],
      "name": "CCTV.obj.cleaner.materialmerger.gles"
    },
    {
      "mesh": 0,
      "name": "Object_2"
    },
    {
      "mesh": 1,
      "name": "Object_3"
    },
    {
      "mesh": 2,
      "name": "Object_4"
    }
  ],
  "samplers": [
    {
      "magFilter": 9729,
      "minFilter": 9987,
      "wrapS": 10497,
      "wrapT": 10497
    }
  ],
  "scene": 0,
  "scenes": [
    {
      "name": "Sketchfab_Scene",
      "nodes": [
        0
      ]
    }
  ],
  "textures": [
    {
      "sampler": 0,
      "source": 0
    }
  ]
}
